<svg aria-hidden="true" style="position: absolute; width: 0; height: 0; overflow: hidden;" version="1.1" xmlns="http://www.w3.org/2000/svg" xmlns:xlink="http://www.w3.org/1999/xlink">
  <defs>
    <symbol id="fullscreensvg" viewBox="0 0 32 32">
      <path d="M0 0v9.6h4.8v-4.8h4.8v-4.8h-9.6z"></path>
      <path d="M4.8 22.4h-4.8v9.6h9.6v-4.8h-4.8v-4.8z"></path>
      <path d="M27.2 0h-4.8v4.8h4.8v4.8h4.8v-9.6h-4.8z"></path>
      <path d="M27.2 27.2h-4.8v4.8h9.6v-9.6h-4.8v4.8z"></path>
    </symbol>
    <symbol id="htmlacademy" viewBox="0 0 25 32">
      <path d="M12.434 0h-0.091l-12.343 1.28v22.583l12.343 7.314 12.251-7.314v-22.583l-12.16-1.28zM22.857 11.063l-10.514-6.217v-0.091h-0.091l-0.091-0.091v0.091l-10.423 6.309v-8.229l10.514-1.097 10.606 1.097v8.229zM12.251 6.217l10.514 6.126-4.114 2.377-6.491-3.84v1.28l5.394 3.2-0.823 0.457-4.571-2.743v1.28l3.474 2.103-0.731 0.457-2.743-1.646v1.28l1.737 1.006-1.646 1.006-10.423-6.126 10.423-6.217zM1.737 13.806l10.423 6.217v0.914l-7.223-4.297v1.28l7.314 4.389v1.006l-7.314-4.297v1.28l7.314 4.389 7.406-4.48v-4.754l3.109-1.829v9.143l-10.514 6.309-10.514-6.217v-9.051z"></path>
    </symbol>
    <symbol id="replaysvg" viewBox="0 0 26 32">
      <path d="M12.8 6.4v-6.4l-8 8 8 8v-6.4c5.28 0 9.6 4.32 9.6 9.6s-4.32 9.6-9.6 9.6c-5.28 0-9.6-4.32-9.6-9.6h-3.2c0 7.040 5.76 12.8 12.8 12.8s12.8-5.76 12.8-12.8c0-7.040-5.76-12.8-12.8-12.8z"></path>
    </symbol>
    <symbol id="subtitlessvg" viewBox="0 0 51 32">
      <path d="M46.4 0h-41.6c-2.72 0-4.8 2.080-4.8 4.8v22.4c0 2.72 2.080 4.8 4.8 4.8h41.6c2.72 0 4.8-2.080 4.8-4.8v-22.4c0-2.72-2.080-4.8-4.8-4.8zM23.040 25.44c-0.8 0.16-1.76 0.16-2.72 0.16-1.12 0-2.24-0.16-3.2-0.48s-1.92-0.96-2.56-1.6c-0.64-0.64-1.28-1.76-1.76-3.040s-0.64-2.72-0.64-4.48c0-1.76 0.32-3.36 0.8-4.64s1.12-2.24 1.92-3.040c0.8-0.8 1.76-1.28 2.72-1.6 0.8-0.16 1.92-0.32 2.88-0.32 1.12 0 1.92 0 2.72 0.16s1.28 0.32 1.76 0.48l-0.64 3.040c-0.48-0.16-0.96-0.32-1.44-0.48-0.64 0-1.28 0-2.080 0-1.44 0-2.56 0.48-3.52 1.6s-1.28 2.72-1.28 4.8c0 0.96 0.16 1.76 0.32 2.56s0.48 1.44 0.96 2.080c0.48 0.48 0.96 0.96 1.6 1.28s1.44 0.48 2.24 0.48c0.8 0 1.44 0 2.080-0.16 0.48-0.16 0.96-0.32 1.44-0.64l0.8 2.88c-0.8 0.48-1.6 0.64-2.4 0.96zM36.96 25.44c-0.8 0.16-1.76 0.16-2.72 0.16-1.12 0-2.24-0.16-3.2-0.48s-1.92-0.96-2.56-1.6c-0.8-0.8-1.44-1.76-1.76-3.040-0.48-1.28-0.64-2.72-0.64-4.48s0.32-3.36 0.8-4.64c0.48-1.28 1.12-2.24 1.92-3.040s1.76-1.28 2.72-1.6c0.8-0.16 1.92-0.32 2.88-0.32 1.12 0 1.92 0 2.72 0.16s1.28 0.32 1.76 0.48l-0.64 3.040c-0.48-0.16-0.96-0.32-1.44-0.48-0.64 0-1.28 0-2.080 0-1.44 0-2.56 0.48-3.52 1.6s-1.28 2.72-1.28 4.8c0 0.96 0.16 1.76 0.32 2.56s0.48 1.44 0.96 2.080c0.48 0.48 0.96 0.96 1.6 1.28s1.44 0.48 2.24 0.48c0.8 0 1.44 0 2.080-0.16 0.48-0.16 0.96-0.32 1.44-0.64l0.8 2.88c-0.8 0.48-1.6 0.64-2.4 0.96z"></path>
    </symbol>
  </defs>
</svg>
